Coordinates
version=1
nRows=24
nColumns=24
inDegrees=yes

Units are S.I. units (second, meters, Newtons, ...)
Angles are in degrees.

endheader
time	pelvis_tilt	pelvis_list	pelvis_rotation	pelvis_tx	pelvis_ty	pelvis_tz	hip_flexion_r	hip_adduction_r	hip_rotation_r	knee_angle_r	ankle_angle_r	subtalar_angle_r	mtp_angle_r	hip_flexion_l	hip_adduction_l	hip_rotation_l	knee_angle_l	ankle_angle_l	subtalar_angle_l	mtp_angle_l	lumbar_extension	lumbar_bending	lumbar_rotation
      5.99000000	     58.79811989	      4.67114226	     -3.54744997	      0.77843110	      1.02742459	     -0.28090738	      5.71745991	     -9.76787468	      0.66095374	    -61.03388866	     10.44985913	      1.33042130	-534066.18713627	      3.94851576	     -4.22287185	    -14.98419051	    -64.28577200	     10.51979333	     -2.14820434	-1288953.49910617	      0.00000000	      0.00000000	      0.00000000
      6.00000000	     58.71031315	      4.60519649	     -3.53476163	      0.77815902	      1.02736754	     -0.28094986	      5.95605993	     -9.61495642	      0.64562316	    -61.14546872	     12.18125203	     -1.17967210	-553522.52882137	      3.98297848	     -4.21521518	    -15.05318986	    -64.43445257	     11.08465085	     -1.68074311	-1316406.74142568	      0.00000000	      0.00000000	      0.00000000
      6.01000000	     58.62445737	      4.52840726	     -3.54245938	      0.77784366	      1.02802193	     -0.28124535	      6.24391956	     -9.46010852	      0.69987837	    -61.15328197	     13.93201054	     -3.92804150	-573482.46139805	      4.02768989	     -4.22822117	    -15.09710188	    -64.47136546	     11.82623989	     -1.58856870	-1344150.93721922	      0.00000000	      0.00000000	      0.00000000
      6.02000000	     58.54669907	      4.47590310	     -3.57792942	      0.77787089	      1.02830018	     -0.28141060	      6.48757233	     -9.35395800	      0.82985578	    -61.01991402	     15.41079473	     -6.56784820	-593954.07383014	      4.10927054	     -4.28458815	    -15.10596387	    -64.40252208	     12.69767626	     -1.92022418	-1372185.70334426	      0.00000000	      0.00000000	      0.00000000
      6.03000000	     58.48341526	      4.46392003	     -3.62005802	      0.77798317	      1.02796985	     -0.28124960	      6.61989351	     -9.32307381	      1.02755501	    -60.72857344	     16.31666740	     -8.71607033	-614945.45736762	      4.22262738	     -4.37006300	    -15.09292425	    -64.28614733	     13.57406678	     -2.60301860	-1400510.62357157	      0.00000000	      0.00000000	      0.00000000
      6.04000000	     58.45535786	      4.48765775	     -3.63737365	      0.77781168	      1.02765820	     -0.28103901	      6.63032254	     -9.36486735	      1.26130032	    -60.31315168	     16.43247183	    -10.03508967	-636464.67461054	      4.33028961	     -4.45374988	    -15.07631950	    -64.18593556	     14.26734613	     -3.46266551	-1429125.23988387	      0.00000000	      0.00000000	      0.00000000
      6.05000000	     58.48155793	      4.52293956	     -3.61329280	      0.77761188	      1.02764801	     -0.28097673	      6.54460969	     -9.45915612	      1.48064535	    -59.86465504	     15.68756750	    -10.31299851	-658519.72524867	      4.38353425	     -4.50926437	    -15.06552985	    -64.13082689	     14.57871818	     -4.27768883	-1458029.04919057	      0.00000000	      0.00000000	      0.00000000
      6.06000000	     58.55155436	      4.54000257	     -3.56099550	      0.77771223	      1.02780188	     -0.28083754	      6.38450139	     -9.56939870	      1.62872643	    -59.50757951	     14.17539460	     -9.51943378	-681118.51204043	      4.34999109	     -4.51463528	    -15.06225668	    -64.10960851	     14.37464637	     -4.84696560	-1487221.50737908	      0.00000000	      0.00000000	      0.00000000
      6.07000000	     58.62597787	      4.53455075	     -3.52096870	      0.77797454	      1.02794087	     -0.28061251	      6.15406620	     -9.64838222	      1.66434747	    -59.34384457	     12.12845687	     -7.82226947	-704268.81204846	      4.23063148	     -4.46287509	    -15.06038461	    -64.08776862	     13.65337618	     -5.04835412	-1516702.04112397	      0.00000000	      0.00000000	      0.00000000
      6.08000000	     58.67359481	      4.53137488	     -3.52973286	      0.77806921	      1.02795702	     -0.28080786	      5.86957921	     -9.66987178	      1.59238400	    -59.38383548	      9.86405567	     -5.56071635	-727978.25857685	      4.05456935	     -4.37640487	    -15.04470927	    -64.03528143	     12.56940694	     -4.86782902	-1546470.06666455	      0.00000000	      0.00000000	      0.00000000
      6.09000000	     58.70838235	      4.53647210	     -3.57437459	      0.77801005	      1.02790818	     -0.28129096	      5.59453358	     -9.66705109	      1.48058403	    -59.51488287	      7.71747776	     -3.17776806	-752254.33873091	      3.86067890	     -4.29234448	    -15.00184035	    -63.95504118	     11.39976901	     -4.38843341	-1576525.01374994	      0.00000000	      0.00000000	      0.00000000
      6.10000000	     58.77177046	      4.53242287	     -3.60408265	      0.77808734	      1.02796824	     -0.28129574	      5.40643666	     -9.70918703	      1.42509767	    -59.56341278	      5.97862015	     -1.12225105	-777104.41055722	      3.69333672	     -4.24157151	    -14.93187130	    -63.88331533	     10.45909309	     -3.74818834	-1606866.35176578	      0.00000000	      0.00000000	      0.00000000
      6.11000000	     58.86687237	      4.53216130	     -3.59421798	      0.77824971	      1.02801390	     -0.28105562	      5.31767167	     -9.82537063	      1.48036645	    -59.41838737	      4.84906724	      0.25296237	-802535.74066024	      3.60184151	     -4.24000137	    -14.84938841	    -63.86347121	      9.99348843	     -3.08713818	-1637493.61434114	      0.00000000	      0.00000000	      0.00000000
      6.12000000	     58.94996326	      4.55941321	     -3.55289244	      0.77816375	      1.02796615	     -0.28129905	      5.28714611	     -9.98516225	      1.62892156	    -59.09400462	      4.43587536	      0.75733194	-828555.55955711	      3.61106372	     -4.27306094	    -14.78107838	    -63.92742599	     10.09745867	     -2.50411941	-1668406.41942753	      0.00000000	      0.00000000	      0.00000000
      6.13000000	     58.97957065	      4.59534110	     -3.48788408	      0.77781047	      1.02810159	     -0.28166618	      5.29081844	    -10.13812269	      1.80360163	    -58.70422670	      4.76973307	      0.37933174	-855171.12705082	      3.69774938	     -4.29895566	    -14.75519007	    -64.08275937	     10.69342280	     -2.04161451	-1699604.48397841	      0.00000000	      0.00000000	      0.00000000
      6.14000000	     58.93977464	      4.61220662	     -3.41947439	      0.77756604	      1.02824753	     -0.28145380	      5.32638041	    -10.23298514	      1.91863221	    -58.41239113	      5.81825634	     -0.73347076	-882389.79776139	      3.81636834	     -4.29272806	    -14.78010691	    -64.29201982	     11.58137937	     -1.70058519	-1731087.63404025	      0.00000000	      0.00000000	      0.00000000
      6.15000000	     58.84997912	      4.61630707	     -3.38832638	      0.77779283	      1.02797595	     -0.28086721	      5.40278641	    -10.22500594	      1.90308396	    -58.36613233	      7.48864080	     -2.32062647	-910219.08006561	      3.93097294	     -4.27281486	    -14.83644433	    -64.47729462	     12.52598237	     -1.46492403	-1762855.81100025	      0.00000000	      0.00000000	      0.00000000
      6.16000000	     58.75535349	      4.62395733	     -3.42026065	      0.77830792	      1.02744838	     -0.28064587	      5.54307811	    -10.10139801	      1.73759919	    -58.62629877	      9.61840988	     -4.06663352	-938666.68060976	      4.01475754	     -4.27529976	    -14.89414208	    -64.56831192	     13.33837544	     -1.31712230	-1794909.07462061	      0.00000000	      0.00000000	      0.00000000
      6.17000000	     58.69183137	      4.62867811	     -3.49969833	      0.77849014	      1.02708426	     -0.28107459	      5.75696693	     -9.90384189	      1.47293443	    -59.13015656	     11.95779326	     -5.65347969	-967740.52786886	      4.05105154	     -4.31976574	    -14.93313890	    -64.55037090	     13.92544256	     -1.24383759	-1827247.60417293	      0.00000000	      0.00000000	      0.00000000
      6.18000000	     58.67950439	      4.59796289	     -3.57279196	      0.77815697	      1.02732926	     -0.28147685	      6.02494923	     -9.71860317	      1.21227153	    -59.70952988	     14.17850308	     -6.80883385	-997448.77572373	      4.04491202	     -4.39714393	    -14.94992990	    -64.46873290	     14.29162630	     -1.23553378	-1859871.69853164	      0.00000000	      0.00000000	      0.00000000
      6.19000000	     58.71300010	      4.51726840	     -3.59139128	      0.77775518	      1.02833625	     -0.28116605	      6.28934875	     -9.61578960	      1.05045341	    -60.17509024	     15.93268294	     -7.35142472	-1027799.78928255	      4.02378914	     -4.47875424	    -14.95000896	    -64.38941506	     14.50077896	     -1.28438010	-1892781.77448870	      0.00000000	      0.00000000	      0.00000000
      6.20000000	     58.73798091	      4.43523784	     -3.56284150	      0.77759680	      1.02919006	     -0.28069389	      6.44942380	     -9.59158648	      1.01320921	    -60.41740950	     16.94707422	     -7.22775192	-1058802.11287722	      4.02159404	     -4.53419412	    -14.93839818	    -64.35564594	     14.62991732	     -1.38396813	-1925978.36174579	      0.00000000	      0.00000000	      0.00000000
      6.21000000	     58.69959931	      4.41577335	     -3.52575394	      0.77764559	      1.02871971	     -0.28085813	      6.43144493	     -9.60243530	      1.06411581	    -60.42964871	     17.11762578	     -6.53451570	-1090464.42306162	      4.05547755	     -4.54456628	    -14.91830742	    -64.37590853	     14.74070821	     -1.53115021	-1959462.09368253	      0.00000000	      0.00000000	      0.00000000
      6.22000000	     58.62316561	      4.46401217	     -3.49254257	      0.77794192	      1.02725221	     -0.28129876	      6.27067310	     -9.63927790	      1.15654772	    -60.26022075	     16.55576528	     -5.50853697	-1122795.47625586	      4.11943057	     -4.51483508	    -14.89204530	    -64.43310595	     14.86716321	     -1.72803397	-1993233.69438285	      0.00000000	      0.00000000	      0.00000000
